<?xml version="1.0" encoding="UTF-8" standalone="no"?>
<!-- Created with Inkscape (http://www.inkscape.org/) -->

<svg
   xmlns:dc="http://purl.org/dc/elements/1.1/"
   xmlns:cc="http://creativecommons.org/ns#"
   xmlns:rdf="http://www.w3.org/1999/02/22-rdf-syntax-ns#"
   xmlns:svg="http://www.w3.org/2000/svg"
   xmlns="http://www.w3.org/2000/svg"
   xmlns:xlink="http://www.w3.org/1999/xlink"
   xmlns:sodipodi="http://sodipodi.sourceforge.net/DTD/sodipodi-0.dtd"
   xmlns:inkscape="http://www.inkscape.org/namespaces/inkscape"
   version="1.0"
   width="1032.9539"
   height="969.5946"
   id="svg3194"
   inkscape:version="0.48.1 "
   sodipodi:docname="Escudo de Córdoba (España) - Variante.svg">
  <sodipodi:namedview
     pagecolor="#ffffff"
     bordercolor="#666666"
     borderopacity="1"
     objecttolerance="10"
     gridtolerance="10"
     guidetolerance="10"
     inkscape:pageopacity="0"
     inkscape:pageshadow="2"
     inkscape:window-width="1920"
     inkscape:window-height="1019"
     id="namedview15978"
     showgrid="false"
     inkscape:zoom="0.72356028"
     inkscape:cx="114.6859"
     inkscape:cy="467.67686"
     inkscape:window-x="-9"
     inkscape:window-y="-9"
     inkscape:window-maximized="1"
     inkscape:current-layer="g27898"
     fit-margin-top="0"
     fit-margin-left="0"
     fit-margin-right="0"
     fit-margin-bottom="0" />
  <defs
     id="defs3196">
    <linearGradient
       id="linearGradient8135">
      <stop
         id="stop8137"
         style="stop-color:#5d070b;stop-opacity:1"
         offset="0" />
      <stop
         id="stop8139"
         style="stop-color:#ed1c24;stop-opacity:1"
         offset="0.5" />
      <stop
         id="stop8141"
         style="stop-color:#5d070a;stop-opacity:1"
         offset="1" />
    </linearGradient>
    <linearGradient
       x1="-418.38882"
       y1="700.10571"
       x2="-136.18279"
       y2="700.10571"
       id="linearGradient2579"
       xlink:href="#linearGradient8135"
       gradientUnits="userSpaceOnUse"
       gradientTransform="matrix(1.1773172,0,0,1.1773172,657.8819,-545.55183)" />
    <path
       d="M 196.26014,1358.8792 80.978114,1021.6214"
       transform="translate(-18.571431,-61.640346)"
       id="path6285-1"
       style="font-size:32px;fill:none;stroke:#000000;stroke-width:1px;stroke-linecap:butt;stroke-linejoin:miter;stroke-opacity:1"
       inkscape:connector-curvature="0" />
    <linearGradient
       x1="-418.38882"
       y1="700.10571"
       x2="-136.18279"
       y2="700.10571"
       id="linearGradient6499"
       xlink:href="#linearGradient8135"
       gradientUnits="userSpaceOnUse"
       gradientTransform="matrix(1.1773172,0,0,1.1773172,657.8819,-545.55183)" />
    <path
       d="M 196.26014,1358.8792 80.978114,1021.6214"
       transform="translate(-18.571431,-61.640346)"
       id="path6285-1-5"
       style="font-size:32px;fill:none;stroke:#000000;stroke-width:1px;stroke-linecap:butt;stroke-linejoin:miter;stroke-opacity:1"
       inkscape:connector-curvature="0" />
  </defs>
  <metadata
     id="metadata3199">
    <rdf:RDF>
      <cc:Work
         rdf:about="">
        <dc:format>image/svg+xml</dc:format>
        <dc:type
           rdf:resource="http://purl.org/dc/dcmitype/StillImage" />
        <dc:title></dc:title>
      </cc:Work>
    </rdf:RDF>
  </metadata>
  <style
     type="text/css"
     id="style33631" />
  <style
     type="text/css"
     id="style3" />
  <style
     type="text/css"
     id="style33631-8" />
  <style
     type="text/css"
     id="style3-5" />
  <g
     transform="translate(-516.89282,-27.088509)"
     id="g37639">
    <g
       id="g27898"
       transform="matrix(0.88095387,0,0,0.88095387,739.55894,88.898608)">
      <g
         transform="matrix(4.9430057,0,0,4.9430057,-1520.2023,-754.2717)"
         id="g4110">
        <path
           sodipodi:type="arc"
           style="fill:#0263c4;fill-opacity:1;fill-rule:nonzero;stroke:#8d7142;stroke-width:4.60215235;stroke-linecap:butt;stroke-linejoin:miter;stroke-miterlimit:4;stroke-opacity:1;stroke-dasharray:none"
           id="path3522"
           sodipodi:cx="-637.14288"
           sodipodi:cy="-297.14285"
           sodipodi:rx="111.42857"
           sodipodi:ry="112.85714"
           d="m -525.71431,-297.14285 c 0,62.32927 -49.88827,112.85714 -111.42857,112.85714 -61.54031,0 -111.42858,-50.52787 -111.42858,-112.85714 0,-62.32928 49.88827,-112.85714 111.42858,-112.85714 61.5403,0 111.42857,50.52786 111.42857,112.85714 z"
           transform="matrix(0.7890652,0,0,0.7290027,878.53312,466.49688)" />
        <g
           id="g3961"
           transform="translate(-999.99996,0)">
          <rect
             y="272.69977"
             x="1434.739"
             height="11.652542"
             width="10.127781"
             id="rect3405"
             style="fill:#8d7142;fill-opacity:1;fill-rule:nonzero;stroke:#502c17;stroke-width:0.59288543;stroke-linecap:butt;stroke-linejoin:miter;stroke-miterlimit:4;stroke-opacity:1;stroke-dasharray:none" />
          <g
             transform="matrix(0.8465011,0,0,0.8474576,2771.7269,-201.15437)"
             id="g3358">
            <rect
               style="fill:#8d7142;fill-opacity:1;fill-rule:nonzero;stroke:#502c17;stroke-width:0.97205913;stroke-linecap:butt;stroke-linejoin:miter;stroke-miterlimit:4;stroke-opacity:1;stroke-dasharray:none"
               id="rect3354"
               width="27.358341"
               height="27.841755"
               x="-1733.014"
               y="513.82013" />
            <path
               inkscape:connector-curvature="0"
               style="fill:#b50128;fill-opacity:1;fill-rule:evenodd;stroke:#502c17;stroke-width:0.70679533;stroke-linecap:butt;stroke-linejoin:miter;stroke-miterlimit:4;stroke-opacity:1;stroke-dasharray:none"
               d="m -1733.4334,513.83268 28.0881,0 -2.5769,-7.82188 -21.6458,0.12616 -3.8654,7.69572 z"
               id="path3356" />
          </g>
          <rect
             y="213.30083"
             x="1345.0739"
             height="33.46423"
             width="2.9130855"
             id="rect2606"
             style="fill:#8d7142;fill-opacity:1;fill-rule:nonzero;stroke:#502c16;stroke-width:0.5;stroke-linecap:butt;stroke-linejoin:miter;stroke-miterlimit:4;stroke-opacity:1;stroke-dasharray:none" />
          <g
             transform="matrix(0.8465011,0,0,0.8474576,2771.7269,-201.15437)"
             id="g3350">
            <rect
               style="fill:#8d7142;fill-opacity:1;fill-rule:nonzero;stroke:#502c17;stroke-width:1;stroke-linecap:butt;stroke-linejoin:miter;stroke-miterlimit:4;stroke-opacity:1;stroke-dasharray:none"
               id="rect3346"
               width="36.367306"
               height="34.094467"
               x="-1698.5869"
               y="521.5376" />
            <path
               inkscape:connector-curvature="0"
               style="fill:#b50128;fill-opacity:1;fill-rule:evenodd;stroke:#502c17;stroke-width:0.69999999;stroke-linecap:butt;stroke-linejoin:miter;stroke-miterlimit:4;stroke-opacity:1;stroke-dasharray:none"
               d="m -1698.586,521.5385 8.8388,-7.82869 25.7589,0.12627 1.5152,0 0.2526,7.70242 -36.3655,0 z"
               id="path3348" />
          </g>
          <g
             transform="matrix(0.8465011,0,0,0.8474576,2771.7269,-201.15437)"
             id="g3301">
            <rect
               style="fill:#8d7142;fill-opacity:1;fill-rule:nonzero;stroke:#502c17;stroke-width:0.69999999;stroke-linecap:butt;stroke-linejoin:miter;stroke-miterlimit:4;stroke-opacity:1;stroke-dasharray:none"
               id="rect3222"
               width="9.8019009"
               height="32.301899"
               x="-1560.9363"
               y="522.99695" />
            <path
               inkscape:connector-curvature="0"
               style="fill:#b50128;fill-opacity:1;fill-rule:evenodd;stroke:#502c17;stroke-width:0.52053881;stroke-linecap:butt;stroke-linejoin:miter;stroke-miterlimit:4;stroke-opacity:1;stroke-dasharray:none"
               d="m -1561.1756,522.96477 5.0437,-8.90804 5.2377,8.90804 -10.2814,0 z"
               id="path3228" />
          </g>
          <g
             transform="matrix(0.8465011,0,0,0.8474576,2771.7269,-201.15437)"
             id="g3305">
            <rect
               style="fill:#8d7142;fill-opacity:1;fill-rule:nonzero;stroke:#502c17;stroke-width:0.69999999;stroke-linecap:butt;stroke-linejoin:miter;stroke-miterlimit:4;stroke-opacity:1;stroke-dasharray:none"
               id="rect3220"
               width="12.894424"
               height="32.180138"
               x="-1587.1254"
               y="523.0578" />
            <path
               inkscape:connector-curvature="0"
               style="fill:#b50128;fill-opacity:1;fill-rule:evenodd;stroke:#502c17;stroke-width:0.51682574;stroke-linecap:butt;stroke-linejoin:miter;stroke-miterlimit:4;stroke-opacity:1;stroke-dasharray:none"
               d="m -1587.3665,523.02977 6.3064,-10.34033 7.0708,10.34033 -13.3772,0 z"
               id="path3226" />
          </g>
          <rect
             y="214.51201"
             x="1416.9957"
             height="41.471687"
             width="1.9049348"
             id="rect3381"
             style="fill:#8d7142;fill-opacity:1;fill-rule:nonzero;stroke:#502c16;stroke-width:0.5;stroke-linecap:butt;stroke-linejoin:miter;stroke-miterlimit:4;stroke-opacity:1;stroke-dasharray:none" />
          <g
             transform="matrix(0.8465011,0,0,0.8474576,2771.7269,-201.15437)"
             id="g3309">
            <rect
               style="fill:#8d7142;fill-opacity:1;fill-rule:nonzero;stroke:#502c17;stroke-width:0.69999999;stroke-linecap:butt;stroke-linejoin:miter;stroke-miterlimit:4;stroke-opacity:1;stroke-dasharray:none"
               id="rect3218"
               width="14.618765"
               height="32.118763"
               x="-1611.2018"
               y="517.47876" />
            <path
               inkscape:connector-curvature="0"
               style="fill:#b50128;fill-opacity:1;fill-rule:evenodd;stroke:#502c17;stroke-width:0.51075226;stroke-linecap:butt;stroke-linejoin:miter;stroke-miterlimit:4;stroke-opacity:1;stroke-dasharray:none"
               d="m -1611.4465,517.43077 7.2743,-10.70352 7.8339,10.70352 -15.1082,0 z"
               id="path3224" />
          </g>
          <g
             transform="matrix(0.8465011,0,0,0.8474576,2771.727,-201.15437)"
             id="g3627">
            <path
               inkscape:connector-curvature="0"
               style="fill:#8d7142;fill-opacity:1;fill-rule:nonzero;stroke:#502c17;stroke-width:1;stroke-linecap:butt;stroke-linejoin:miter;stroke-miterlimit:4;stroke-opacity:1;stroke-dasharray:none"
               d="m -1566.1562,214.84375 0,17.34375 -2.3126,0 0,0.21875 0,0.625 -0.5,0 0,24.34375 -2.7812,0 0,58.375 27.7812,0 0,-58.375 -2.7812,0 0,-24.34375 -0.5,0 0,-0.625 0,-0.21875 -2.3125,0 0,-17.34375 -0.125,0 -0.5937,0 -15.1563,0 -0.5937,0 -0.125,0 z"
               transform="translate(-93,237.36218)"
               id="rect3462" />
            <path
               inkscape:connector-curvature="0"
               style="fill:#8d7142;fill-opacity:1;fill-rule:nonzero;stroke:#502c17;stroke-width:1;stroke-linecap:butt;stroke-linejoin:miter;stroke-miterlimit:4;stroke-opacity:1;stroke-dasharray:none"
               d="m -1665.504,490.5653 0,5.03125 29.1676,0 0,-5.03125 -1.7884,0 0,2.53125 -2.8941,0 0,-2.53125 -4.1295,0 0,2.25 -2.8941,0 0,-2.25 -3.8694,0 0,2.53125 -2.8616,0 0,-2.53125 -3.6418,0 0,2.53125 -2.8942,0 0,-2.53125 -4.1945,0 z"
               id="path3535" />
            <path
               inkscape:connector-curvature="0"
               style="fill:#8d7142;fill-opacity:1;fill-rule:nonzero;stroke:#502c17;stroke-width:1.03544855;stroke-linecap:butt;stroke-linejoin:miter;stroke-miterlimit:4;stroke-opacity:1;stroke-dasharray:none"
               d="m -1662.7165,465.58302 0,4.99581 23.4511,0 0,-4.99581 -2.4632,0 0,1.98591 -2.4632,0 0,-1.98591 -2.6656,0 0,1.98591 -2.4633,0 0,-1.98591 -2.6656,0 0,1.98591 -2.4295,0 0,-1.98591 -2.1595,0 0,1.98591 -2.4633,0 0,-1.98591 -3.6779,0 z"
               id="path3537" />
            <path
               inkscape:connector-curvature="0"
               style="fill:#8d7142;fill-opacity:1;fill-rule:nonzero;stroke:#502c17;stroke-width:0.96086955;stroke-linecap:butt;stroke-linejoin:miter;stroke-miterlimit:4;stroke-opacity:1;stroke-dasharray:none"
               d="m -1659.7531,449.10824 0,4.85162 17.9216,0 0,-4.85162 -2.9279,0 0,2.29979 -2.3953,0 0,-2.29979 -2.1293,0 0,2.29979 -2.3955,0 0,-2.29979 -2.5433,0 0,2.29979 -2.3955,0 0,-2.29979 -3.1348,0 z"
               id="path3539" />
          </g>
          <g
             transform="matrix(0.8465011,0,0,0.8474576,2771.727,-201.15437)"
             id="g3183">
            <rect
               style="fill:#8d7142;fill-opacity:1;fill-rule:nonzero;stroke:#502c17;stroke-width:1.12062275;stroke-linecap:butt;stroke-linejoin:miter;stroke-miterlimit:4;stroke-opacity:1;stroke-dasharray:none"
               id="rect3605"
               width="54.175072"
               height="35.916183"
               x="-1669.7366"
               y="530.18506" />
            <path
               inkscape:connector-curvature="0"
               style="fill:#8d7142;fill-opacity:1;fill-rule:nonzero;stroke:#502c17;stroke-width:1;stroke-linecap:butt;stroke-linejoin:miter;stroke-miterlimit:4;stroke-opacity:1;stroke-dasharray:none"
               d="m -1669.813,521.58093 0,8.5625 54.3125,0 0,-8.5625 -3.8125,0 0,5 -3.6563,0 0,-5 -5.2812,0 0,5 -3.6562,0 0,-5 -4.8438,0 0,5 -3.6562,0 0,-5 -4.9688,0 0,5 -3.6562,0 0,-5 -5.0938,0 0,5 -3.6562,0 0,-5 -4.9688,0 0,5 -3.6562,0 0,-5 -3.4063,0 z"
               id="rect3607" />
          </g>
          <path
             inkscape:connector-curvature="0"
             id="path3381"
             d="m 1454.5278,244.2929 c -1.0014,0 -1.7989,0.79843 -1.7989,1.80085 0,0.0267 0,0.053 0,0.0795 l 0,3.17797 3.6241,0 0,-3.17797 c 0,-0.026 0,-0.0531 0,-0.0795 0,-1.00242 -0.8238,-1.80085 -1.8252,-1.80085 z"
             style="fill:#502c16;fill-opacity:1;fill-rule:nonzero;stroke:none" />
          <rect
             style="fill:#8d7142;fill-opacity:1;fill-rule:nonzero;stroke:#502c16;stroke-width:0.5;stroke-linecap:butt;stroke-linejoin:miter;stroke-miterlimit:4;stroke-opacity:1;stroke-dasharray:none"
             id="rect3379"
             width="1.9477527"
             height="33.559555"
             x="1443.6676"
             y="227.92563" />
          <g
             transform="matrix(0.8465011,0,0,0.8474576,2771.7269,-201.15437)"
             id="g3373">
            <rect
               style="fill:#8d7142;fill-opacity:1;fill-rule:nonzero;stroke:#502c17;stroke-width:0.69910759;stroke-linecap:butt;stroke-linejoin:miter;stroke-miterlimit:4;stroke-opacity:1;stroke-dasharray:none"
               id="rect3362"
               width="14.016759"
               height="20.077673"
               x="-1559.312"
               y="543.13007" />
            <path
               inkscape:connector-curvature="0"
               style="fill:#b50128;fill-opacity:1;fill-rule:evenodd;stroke:#502c17;stroke-width:0.69999999;stroke-linecap:butt;stroke-linejoin:miter;stroke-miterlimit:4;stroke-opacity:1;stroke-dasharray:none"
               d="m -1572.0859,529.9467 25.7198,0 5.8681,0 -4.6195,13.1783 -26.3442,0.38383 -0.6242,-13.56213 z"
               id="path3370" />
            <path
               inkscape:connector-curvature="0"
               style="fill:#8d7142;fill-opacity:1;fill-rule:nonzero;stroke:#502c17;stroke-width:0.70200002;stroke-linecap:butt;stroke-linejoin:miter;stroke-miterlimit:4;stroke-opacity:1;stroke-dasharray:none"
               d="m -1479.5,292.75 -12.7188,13.15625 -0.094,0 0,0.0937 0,0.0312 0,19.8125 25.875,0 0,-19.9375 -0.625,0 L -1479.5,292.75 z"
               transform="translate(-93,237.36218)"
               id="rect3364" />
          </g>
          <g
             transform="matrix(0.8465011,0,0,0.8474576,3618.228,-201.15437)"
             id="g3296">
            <rect
               style="fill:#8d7142;fill-opacity:1;fill-rule:nonzero;stroke:#502c17;stroke-width:1;stroke-linecap:butt;stroke-linejoin:miter;stroke-miterlimit:4;stroke-opacity:1;stroke-dasharray:none"
               id="rect3284"
               width="28.928572"
               height="32.142857"
               x="-2606.2141"
               y="543.43359" />
            <path
               inkscape:connector-curvature="0"
               style="fill:#b50128;fill-opacity:1;fill-rule:evenodd;stroke:#502c17;stroke-width:1.00215614px;stroke-linecap:butt;stroke-linejoin:miter;stroke-opacity:1"
               d="m -2606.1668,543.43253 -10.3141,-11.60501 30.2247,-0.17855 9.1481,11.78356 -29.0587,0 z"
               id="path3286"
               sodipodi:nodetypes="ccccc" />
            <path
               inkscape:connector-curvature="0"
               style="fill:#8d7142;fill-opacity:1;fill-rule:evenodd;stroke:#502c17;stroke-width:1px;stroke-linecap:butt;stroke-linejoin:miter;stroke-opacity:1"
               d="m -2615.9463,532.63003 0.625,42.76786 9.1072,0 0,-31.78571 -9.7322,-10.98215 z"
               id="path3288"
               sodipodi:nodetypes="ccccc" />
          </g>
          <path
             inkscape:connector-curvature="0"
             id="path3383"
             d="m 1420.0724,263.08716 c -1.3556,0 -2.4353,1.018 -2.4353,2.29611 0,0.0341 0,0.0676 0,0.10129 l 0,4.05196 4.9064,0 0,-4.05196 c 0,-0.0332 0,-0.0677 0,-0.10129 0,-1.27811 -1.1153,-2.29611 -2.4711,-2.29611 z"
             style="fill:#502c16;fill-opacity:1;fill-rule:nonzero;stroke:none" />
          <g
             transform="matrix(0.8465011,0,0,0.8474576,2771.7269,-201.15437)"
             id="g3179">
            <rect
               style="fill:#8d7142;fill-opacity:1;fill-rule:nonzero;stroke:#502c17;stroke-width:1;stroke-linecap:butt;stroke-linejoin:miter;stroke-miterlimit:4;stroke-opacity:1;stroke-dasharray:none"
               id="rect3167"
               width="68.398117"
               height="15.122552"
               x="-1656.4219"
               y="562.86725" />
            <path
               inkscape:connector-curvature="0"
               style="fill:#8d7142;fill-opacity:1;fill-rule:nonzero;stroke:#502c17;stroke-width:1.11379445;stroke-linecap:butt;stroke-linejoin:miter;stroke-miterlimit:4;stroke-opacity:1;stroke-dasharray:none"
               d="m -1656.3431,554.47786 0,8.4487 68.2842,0 0,-8.4487 -4.7933,0 0,4.93355 -4.5968,0 0,-4.93355 -6.6398,0 0,4.93355 -4.5967,0 0,-4.93355 -6.0899,0 0,4.93355 -4.5967,0 0,-4.93355 -6.247,0 0,4.93355 -4.5968,0 0,-4.93355 -6.4041,0 0,4.93355 -4.5968,0 0,-4.93355 -6.247,0 0,4.93355 -4.5967,0 0,-4.93355 -4.2826,0 z"
               id="path3171" />
          </g>
          <g
             transform="matrix(0.8465011,0,0,0.8474576,2771.7269,-201.15437)"
             id="g3400">
            <g
               id="g3392">
              <rect
                 y="571.30902"
                 x="-1588.6957"
                 height="12.106304"
                 width="15.677733"
                 id="rect3380"
                 style="fill:#8d7142;fill-opacity:1;fill-rule:nonzero;stroke:#502c17;stroke-width:0.73655277;stroke-linecap:butt;stroke-linejoin:miter;stroke-miterlimit:4;stroke-opacity:1;stroke-dasharray:none" />
              <path
                 inkscape:connector-curvature="0"
                 style="fill:#8d7142;fill-opacity:1;fill-rule:nonzero;stroke:#502c17;stroke-width:0.69999999;stroke-linecap:butt;stroke-linejoin:miter;stroke-miterlimit:4;stroke-opacity:1;stroke-dasharray:none"
                 d="m -1588.714,566.37807 0,4.98203 15.9594,0 0,-4.98203 -1.4851,0 0,2.90619 -2.1502,0 0,-2.90619 -3.0367,0 0,2.90619 -2.1722,0 0,-2.90619 -2.9481,0 0,2.90619 -2.1722,0 0,-2.90619 -1.9949,0 z"
                 id="path3384" />
            </g>
          </g>
          <path
             inkscape:connector-curvature="0"
             id="path3434"
             d="m 1384.8556,266.49517 9.372,-0.15134"
             style="fill:none;stroke:#502c16;stroke-width:0.8469792px;stroke-linecap:butt;stroke-linejoin:miter;stroke-opacity:1" />
          <path
             inkscape:connector-curvature="0"
             style="fill:none;stroke:#502c16;stroke-width:0.8469792;stroke-linecap:butt;stroke-linejoin:miter;stroke-miterlimit:4;stroke-opacity:1;stroke-dasharray:none"
             d="m 1396.5268,267.74968 -30.2201,0.0636 0,0"
             id="path3436" />
          <g
             transform="matrix(0.8465011,0,0,0.8474576,2771.727,-201.15437)"
             id="g3210">
            <rect
               y="556.64789"
               x="-1633.714"
               height="22.857143"
               width="22.5"
               id="rect3204"
               style="fill:#8d7142;fill-opacity:1;fill-rule:nonzero;stroke:#502c17;stroke-width:1;stroke-linecap:butt;stroke-linejoin:miter;stroke-miterlimit:4;stroke-opacity:1;stroke-dasharray:none" />
            <path
               inkscape:connector-curvature="0"
               style="fill:#8d7142;fill-opacity:1;fill-rule:nonzero;stroke:#502c17;stroke-width:0.91923362;stroke-linecap:butt;stroke-linejoin:miter;stroke-miterlimit:4;stroke-opacity:1;stroke-dasharray:none"
               d="m -1633.7544,547.96228 0,8.625 22.5,0 0,-8.625 -2.0937,0 0,5.03125 -3.0313,0 0,-5.03125 -4.2812,0 0,5.03125 -3.0625,0 0,-5.03125 -4.1563,0 0,5.03125 -3.0624,0 0,-5.03125 -2.8126,0 z"
               id="path3195" />
          </g>
          <g
             transform="matrix(0.8465011,0,0,0.8474576,2771.7269,-201.15437)"
             id="g3256">
            <rect
               style="fill:#8d7142;fill-opacity:1;fill-rule:nonzero;stroke:#502c17;stroke-width:1.0134263;stroke-linecap:butt;stroke-linejoin:miter;stroke-miterlimit:4;stroke-opacity:1;stroke-dasharray:none"
               id="rect3230"
               width="26.236755"
               height="33.379608"
               x="-1695.9397"
               y="540.13672" />
            <path
               inkscape:connector-curvature="0"
               id="path3234"
               d="m -1695.9054,531.53482 0,8.55518 26.2609,0 0,-8.55518 -2.4437,0 0,4.99052 -3.538,0 0,-4.99052 -4.9969,0 0,4.99052 -3.5744,0 0,-4.99052 -4.851,0 0,4.99052 -3.5742,0 0,-4.99052 -3.2827,0 z"
               style="fill:#8d7142;fill-opacity:1;fill-rule:nonzero;stroke:#502c17;stroke-width:0.98906463;stroke-linecap:butt;stroke-linejoin:miter;stroke-miterlimit:4;stroke-opacity:1;stroke-dasharray:none" />
          </g>
          <path
             inkscape:connector-curvature="0"
             style="fill:#502c16;fill-opacity:1;fill-rule:nonzero;stroke:none"
             d="m 1322.3651,237.18031 c -1.2101,0 -2.1739,0.94175 -2.1739,2.12411 0,0.0315 0,0.0625 0,0.0937 l 0,3.74843 4.3797,0 0,-3.74843 c 0,-0.0307 0,-0.0627 0,-0.0937 0,-1.18236 -0.9956,-2.12411 -2.2058,-2.12411 z"
             id="path3365" />
          <g
             transform="matrix(0.8465011,0,0,0.8474576,2771.7269,-201.15437)"
             id="g3278">
            <rect
               style="fill:#8d7142;fill-opacity:1;fill-rule:nonzero;stroke:#502c17;stroke-width:1;stroke-linecap:butt;stroke-linejoin:miter;stroke-miterlimit:4;stroke-opacity:1;stroke-dasharray:none"
               id="rect3236"
               width="22.389896"
               height="43.923069"
               x="-1718.3544"
               y="528.79346" />
            <path
               inkscape:connector-curvature="0"
               id="path3238"
               d="m -1718.3947,520.13394 0,8.62556 22.4713,0 0,-8.62556 -2.091,0 0,5.03158 -3.0275,0 0,-5.03158 -4.2758,0 0,5.03158 -3.0586,0 0,-5.03158 -4.151,0 0,5.03158 -3.0584,0 0,-5.03158 -2.809,0 z"
               style="fill:#8d7142;fill-opacity:1;fill-rule:nonzero;stroke:#502c17;stroke-width:0.91867822;stroke-linecap:butt;stroke-linejoin:miter;stroke-miterlimit:4;stroke-opacity:1;stroke-dasharray:none" />
          </g>
          <g
             transform="matrix(0.8465011,0,0,0.8474576,2771.7269,-201.15437)"
             id="g3244">
            <rect
               style="fill:#8d7142;fill-opacity:1;fill-rule:nonzero;stroke:#502c17;stroke-width:1;stroke-linecap:butt;stroke-linejoin:miter;stroke-miterlimit:4;stroke-opacity:1;stroke-dasharray:none"
               id="rect3240"
               width="18.133797"
               height="29.562366"
               x="-1736.5308"
               y="538.83099" />
            <path
               inkscape:connector-curvature="0"
               id="path3242"
               d="m -1736.6994,533.29529 0,5.47161 18.4707,0 0,-5.47161 -1.7187,0 0,3.19177 -2.4886,0 0,-3.19177 -3.5145,0 0,3.19177 -2.5141,0 0,-3.19177 -3.412,0 0,3.19177 -2.5139,0 0,-3.19177 -2.3089,0 z"
               style="fill:#8d7142;fill-opacity:1;fill-rule:nonzero;stroke:#502c17;stroke-width:0.66336715;stroke-linecap:butt;stroke-linejoin:miter;stroke-miterlimit:4;stroke-opacity:1;stroke-dasharray:none" />
          </g>
          <rect
             y="248.74594"
             x="1285.1313"
             height="32.74435"
             width="16.674358"
             id="rect3272"
             style="fill:#8d7142;fill-opacity:1;fill-rule:nonzero;stroke:#502c17;stroke-width:0.59288543;stroke-linecap:butt;stroke-linejoin:miter;stroke-miterlimit:4;stroke-opacity:1;stroke-dasharray:none" />
          <path
             inkscape:connector-curvature="0"
             style="fill:#8d7142;fill-opacity:1;fill-rule:nonzero;stroke:#502c17;stroke-width:0.67734414;stroke-linecap:butt;stroke-linejoin:miter;stroke-miterlimit:4;stroke-opacity:1;stroke-dasharray:none"
             d="m 1285.1734,242.28242 0,6.35129 16.59,0 0,-6.35129 -1.5437,0 0,3.70492 -2.2351,0 0,-3.70492 -3.1567,0 0,3.70492 -2.2581,0 0,-3.70492 -3.0646,0 0,3.70492 -2.2579,0 0,-3.70492 -2.0739,0 z"
             id="path3276" />
          <path
             inkscape:connector-curvature="0"
             id="path3313"
             d="m 1374.5952,172.8284 -0.291,1.13877 c -0.3288,0.13024 -0.5556,0.44092 -0.5555,0.82097 0,0.34993 0.1882,0.64695 0.4761,0.79449 l 0,0.45022 c -0.6797,0.19851 -1.1904,0.87987 -1.1904,1.66843 0,0.76789 0.485,1.39858 1.1375,1.61546 l 0,1.77437 0.873,0 0,-1.74788 c 0.6914,-0.19011 1.2168,-0.84453 1.2168,-1.64195 0,-0.80628 -0.5402,-1.48705 -1.2433,-1.66843 l 0,-0.45022 c 0.2879,-0.14754 0.4761,-0.44456 0.4761,-0.79449 0,-0.37102 -0.2125,-0.68486 -0.529,-0.82097 l -0.3703,-1.13877 z"
             style="fill:#8d7142;fill-opacity:1;fill-rule:nonzero;stroke:#502c17;stroke-width:0.4234896;stroke-linecap:butt;stroke-linejoin:miter;stroke-miterlimit:4;stroke-opacity:1;stroke-dasharray:none" />
          <path
             inkscape:connector-curvature="0"
             id="path3432"
             d="m 1376.6929,266.49517 -10.4301,0.15133 0,0"
             style="fill:none;stroke:#502c16;stroke-width:0.8469792px;stroke-linecap:butt;stroke-linejoin:miter;stroke-opacity:1" />
          <g
             transform="matrix(0.8465011,0,0,0.8474576,2771.7269,-201.15437)"
             id="g3252">
            <rect
               style="fill:#8d7142;fill-opacity:1;fill-rule:nonzero;stroke:#502c17;stroke-width:0.93217856;stroke-linecap:butt;stroke-linejoin:miter;stroke-miterlimit:4;stroke-opacity:1;stroke-dasharray:none"
               id="rect3187"
               width="22.210678"
               height="22.585768"
               x="-1677.3199"
               y="556.59607" />
            <path
               inkscape:connector-curvature="0"
               id="path3208"
               d="m -1677.329,547.95964 0,8.63028 22.229,0 0,-8.63028 -2.0685,0 0,5.03433 -2.9948,0 0,-5.03433 -4.2297,0 0,5.03433 -3.0256,0 0,-5.03433 -4.1062,0 0,5.03433 -3.0255,0 0,-5.03433 -2.7787,0 z"
               style="fill:#8d7142;fill-opacity:1;fill-rule:nonzero;stroke:#502c17;stroke-width:0.9139607;stroke-linecap:butt;stroke-linejoin:miter;stroke-miterlimit:4;stroke-opacity:1;stroke-dasharray:none" />
          </g>
          <g
             transform="matrix(0.8465011,0,0,0.8474576,2771.7269,-201.15437)"
             id="g3396">
            <rect
               style="fill:#8d7142;fill-opacity:1;fill-rule:nonzero;stroke:#502c17;stroke-width:0.69073385;stroke-linecap:butt;stroke-linejoin:miter;stroke-miterlimit:4;stroke-opacity:1;stroke-dasharray:none"
               id="rect3378"
               width="25.723553"
               height="23.937838"
               x="-1573.3616"
               y="560.21472" />
            <path
               inkscape:connector-curvature="0"
               id="path3382"
               d="m -1573.3557,552.94845 0,7.3857 25.7114,0 0,-7.3857 -2.3924,0 0,4.30833 -3.4641,0 0,-4.30833 -4.8923,0 0,4.30833 -3.4996,0 0,-4.30833 -4.7495,0 0,4.30833 -3.4995,0 0,-4.30833 -3.214,0 z"
               style="fill:#8d7142;fill-opacity:1;fill-rule:nonzero;stroke:#502c17;stroke-width:0.70265681;stroke-linecap:butt;stroke-linejoin:miter;stroke-miterlimit:4;stroke-opacity:1;stroke-dasharray:none" />
          </g>
          <path
             inkscape:connector-curvature="0"
             id="path3375"
             d="m 1434.2047,285.10494 c -1.0013,0 -1.7988,0.79843 -1.7988,1.80085 0,0.0267 0,0.053 0,0.0794 l 0,3.17797 3.624,0 0,-3.17797 c 0,-0.026 0,-0.0531 0,-0.0794 0,-1.00242 -0.8238,-1.80085 -1.8252,-1.80085 z"
             style="fill:#502c16;fill-opacity:1;fill-rule:nonzero;stroke:none" />
          <path
             inkscape:connector-curvature="0"
             id="path3448"
             d="m 1390.6868,285.46081 c -26.4989,-0.0286 -52.9252,4.29498 -74.4656,16.60487 l 16.1893,-0.92691 0,3.49577 7.8566,-0.3178 c 0,0 3.6128,2.42888 6.0313,0.1589 l 0.1587,-7.41525 c 0,0 4.5462,-5.75061 8.174,0 l 0,8.02436 c 0,0 3.1555,2.11107 7.5392,-0.1589 l 0.1587,-9.5339 c 0,0 5.6043,-8.45565 10.2903,1.98623 l 0,7.86547 c 0,0 2.8758,2.11107 6.9571,-0.1589 l 0.2911,-9.6928 c 0,0 5.1394,-11.02829 9.5231,0.92691 l 0,8.15678 c 0,0 2.8645,3.03799 7.2482,0.76801 l 0.1587,-9.98411 c 0,0 5.4342,-8.93235 9.3644,1.50953 l 0.1587,9.2161 c 0,0 3.4805,2.12999 6.9572,-0.29131 l 0.1587,-10.30191 c 0,0 6.9383,-10.13923 10.2638,3.17797 l -0.2909,7.12394 c 0,0 -0.011,2.26619 6.6397,0.45021 l -0.1587,-8.18326 c 0,0 5.2907,-9.68146 10.5813,1.66843 l 0,5.61441 8.465,0.29131 8.7824,0.58263 0,-12.95021 c -20.2207,-4.25974 -43.6441,-7.6813 -67.0323,-7.70657 z"
             style="fill:#8d7142;fill-opacity:1;fill-rule:evenodd;stroke:#502c17;stroke-width:0.8469792px;stroke-linecap:butt;stroke-linejoin:miter;stroke-opacity:1" />
          <path
             inkscape:connector-curvature="0"
             sodipodi:nodetypes="cc"
             id="path3483"
             d="m 1319.5056,301.82177 c 55.3673,-29.10609 138.3117,-6.63448 138.3117,-6.63448"
             style="fill:none;stroke:#502c17;stroke-width:0.8469792px;stroke-linecap:butt;stroke-linejoin:miter;stroke-opacity:1" />
          <path
             inkscape:connector-curvature="0"
             id="rect3439"
             d="m 1284.2657,277.40996 0,25.71504 47.9067,0 0,-2.27754 9.7612,0 0,-5.72034 6.9837,0 0,-9.74576 -6.9837,0 0,-1.48305 -9.7612,0 0,-6.48835 -47.9067,0 z"
             style="fill:#8d7142;fill-opacity:1;fill-rule:nonzero;stroke:#502c17;stroke-width:0.57548279;stroke-linecap:butt;stroke-linejoin:miter;stroke-miterlimit:4;stroke-opacity:1;stroke-dasharray:none" />
          <path
             inkscape:connector-curvature="0"
             id="path3453"
             d="m 1354.4724,297.2155 c 3.4767,-3.17796 7.7092,-1.21066 7.7092,-1.21066"
             style="fill:none;stroke:#502c17;stroke-width:0.59288543;stroke-linecap:butt;stroke-linejoin:miter;stroke-miterlimit:4;stroke-opacity:1;stroke-dasharray:none" />
          <path
             inkscape:connector-curvature="0"
             id="path3461"
             d="m 1423.5529,298.42616 c 3.7791,-2.87531 6.1977,-0.15133 6.1977,-0.15133"
             style="fill:none;stroke:#502c17;stroke-width:0.59288543;stroke-linecap:butt;stroke-linejoin:miter;stroke-miterlimit:4;stroke-opacity:1;stroke-dasharray:none" />
          <path
             inkscape:connector-curvature="0"
             id="path3463"
             d="m 1372.6118,297.2155 c 3.1743,-3.48063 7.1045,-1.21066 7.1045,-1.21066"
             style="fill:none;stroke:#502c17;stroke-width:0.59288543;stroke-linecap:butt;stroke-linejoin:miter;stroke-miterlimit:4;stroke-opacity:1;stroke-dasharray:none" />
          <path
             inkscape:connector-curvature="0"
             id="path3465"
             d="m 1389.5418,296.00484 c 3.3255,-3.02662 7.1045,-0.45399 7.1045,-0.45399"
             style="fill:none;stroke:#502c17;stroke-width:0.59288543;stroke-linecap:butt;stroke-linejoin:miter;stroke-miterlimit:4;stroke-opacity:1;stroke-dasharray:none" />
          <path
             inkscape:connector-curvature="0"
             id="path3467"
             d="m 1406.0183,296.45884 c 3.6279,-2.57264 7.2557,-0.60533 7.2557,-0.60533"
             style="fill:none;stroke:#502c17;stroke-width:0.59288543;stroke-linecap:butt;stroke-linejoin:miter;stroke-miterlimit:4;stroke-opacity:1;stroke-dasharray:none" />
          <path
             inkscape:connector-curvature="0"
             id="path3469"
             d="m 1360.67,295.39952 c 7.1046,-11.34988 13.151,0.90799 13.151,0.90799"
             style="fill:none;stroke:#502c17;stroke-width:0.59288543;stroke-linecap:butt;stroke-linejoin:miter;stroke-miterlimit:4;stroke-opacity:1;stroke-dasharray:none" />
          <path
             inkscape:connector-curvature="0"
             id="path3471"
             d="m 1378.3628,295.69523 c 7.7001,-13.80684 11.7767,-0.3174 11.7767,-0.3174"
             style="fill:none;stroke:#502c17;stroke-width:0.60678846;stroke-linecap:butt;stroke-linejoin:miter;stroke-miterlimit:4;stroke-opacity:1;stroke-dasharray:none" />
          <path
             inkscape:connector-curvature="0"
             id="path3473"
             d="m 1395.4371,295.09686 c 7.4069,-12.10654 11.7905,0.75665 11.7905,0.75665"
             style="fill:none;stroke:#502c17;stroke-width:0.59288543;stroke-linecap:butt;stroke-linejoin:miter;stroke-miterlimit:4;stroke-opacity:1;stroke-dasharray:none" />
          <path
             inkscape:connector-curvature="0"
             id="path3475"
             d="m 1411.9196,295.61885 c 8.7591,-12.77918 12.8365,1.89322 12.8365,1.89322"
             style="fill:none;stroke:#502c17;stroke-width:0.60507441;stroke-linecap:butt;stroke-linejoin:miter;stroke-miterlimit:4;stroke-opacity:1;stroke-dasharray:none" />
          <path
             inkscape:connector-curvature="0"
             id="path3477"
             d="m 1440.1807,299.48548 c 5.1394,-3.93463 9.0696,0 9.0696,0"
             style="fill:none;stroke:#502c17;stroke-width:0.59288543;stroke-linecap:butt;stroke-linejoin:miter;stroke-miterlimit:4;stroke-opacity:1;stroke-dasharray:none" />
          <path
             inkscape:connector-curvature="0"
             id="path3479"
             d="m 1428.5297,297.46045 c 8.68,-11.42795 12.7207,1.12868 12.7207,1.12868"
             style="fill:none;stroke:#502c17;stroke-width:0.56960696;stroke-linecap:butt;stroke-linejoin:miter;stroke-miterlimit:4;stroke-opacity:1;stroke-dasharray:none" />
          <path
             transform="matrix(1.0581264,0,0,1.0756193,-167.56673,-67.732569)"
             d="m 1522.5,300.17856 c 0,1.28209 -1.0393,2.32143 -2.3214,2.32143 -1.2821,0 -2.3214,-1.03934 -2.3214,-2.32143 0,-1.28209 1.0393,-2.32143 2.3214,-2.32143 1.2821,0 2.3214,1.03934 2.3214,2.32143 z"
             sodipodi:ry="2.3214285"
             sodipodi:rx="2.3214285"
             sodipodi:cy="300.17856"
             sodipodi:cx="1520.1786"
             id="path2464"
             style="fill:#502c16;fill-opacity:1;fill-rule:nonzero;stroke:none"
             sodipodi:type="arc" />
          <path
             inkscape:connector-curvature="0"
             id="rect3237"
             d="m 1446.1057,283.89831 c -1.0014,0 -1.7989,0.79842 -1.7989,1.80085 0,0.0267 0,0.053 0,0.0795 l 0,3.17796 3.6241,0 0,-3.17796 c 0,-0.026 0,-0.0531 0,-0.0795 0,-1.00243 -0.8238,-1.80085 -1.8252,-1.80085 z"
             style="fill:#502c16;fill-opacity:1;fill-rule:nonzero;stroke:none" />
          <path
             inkscape:connector-curvature="0"
             style="fill:#502c16;fill-opacity:1;fill-rule:nonzero;stroke:none"
             d="m 1446.1057,277.11865 c -1.0014,0 -1.7989,0.79842 -1.7989,1.80085 0,0.0267 0,0.053 0,0.0794 l 0,3.17796 3.6241,0 0,-3.17796 c 0,-0.026 0,-0.0531 0,-0.0794 0,-1.00243 -0.8238,-1.80085 -1.8252,-1.80085 z"
             id="path3243" />
          <path
             inkscape:connector-curvature="0"
             id="path3245"
             d="m 1453.8148,277.11865 c -1.0013,0 -1.7988,0.79842 -1.7988,1.80085 0,0.0267 0,0.053 0,0.0794 l 0,3.17796 3.6241,0 0,-3.17796 c 0,-0.026 0,-0.0531 0,-0.0794 0,-1.00243 -0.8239,-1.80085 -1.8253,-1.80085 z"
             style="fill:#502c16;fill-opacity:1;fill-rule:nonzero;stroke:none" />
          <path
             inkscape:connector-curvature="0"
             id="path3247"
             d="m 1414.3626,278.79523 c -1.0013,0 -1.7988,0.79843 -1.7988,1.80085 0,0.0267 0,0.053 0,0.0795 l 0,3.17797 3.6241,0 0,-3.17797 c 0,-0.026 0,-0.0531 0,-0.0795 0,-1.00242 -0.8239,-1.80085 -1.8253,-1.80085 z"
             style="fill:#502c16;fill-opacity:1;fill-rule:nonzero;stroke:none" />
          <path
             inkscape:connector-curvature="0"
             style="fill:#502c16;fill-opacity:1;fill-rule:nonzero;stroke:none"
             d="m 1422.4001,278.79523 c -1.0014,0 -1.7988,0.79843 -1.7988,1.80085 0,0.0267 0,0.053 0,0.0795 l 0,3.17797 3.624,0 0,-3.17797 c 0,-0.026 0,-0.0531 0,-0.0795 0,-1.00242 -0.8238,-1.80085 -1.8252,-1.80085 z"
             id="path3249" />
          <path
             inkscape:connector-curvature="0"
             id="path3251"
             d="m 1394.3353,274.35984 c -1.0013,0 -1.7988,0.79843 -1.7988,1.80085 0,0.0267 0,0.053 0,0.0795 l 0,3.17797 3.6241,0 0,-3.17797 c 0,-0.026 0,-0.0531 0,-0.0795 0,-1.00242 -0.8238,-1.80085 -1.8253,-1.80085 z"
             style="fill:#502c16;fill-opacity:1;fill-rule:nonzero;stroke:none" />
          <path
             inkscape:connector-curvature="0"
             style="fill:#502c16;fill-opacity:1;fill-rule:nonzero;stroke:none"
             d="m 1401.7487,274.35984 c -1.0014,0 -1.7989,0.79843 -1.7989,1.80085 0,0.0267 0,0.053 0,0.0795 l 0,3.17797 3.6241,0 0,-3.17797 c 0,-0.026 0,-0.0531 0,-0.0795 0,-1.00242 -0.8238,-1.80085 -1.8252,-1.80085 z"
             id="path3253" />
          <path
             inkscape:connector-curvature="0"
             id="path3255"
             d="m 1305.0853,259.05775 c -1.0013,0 -1.7988,0.79842 -1.7988,1.80085 0,0.0267 0,0.053 0,0.0794 l 0,3.17796 3.6241,0 0,-3.17796 c 0,-0.026 0,-0.0531 0,-0.0794 0,-1.00243 -0.8238,-1.80085 -1.8253,-1.80085 z"
             style="fill:#502c16;fill-opacity:1;fill-rule:nonzero;stroke:none" />
          <path
             inkscape:connector-curvature="0"
             style="fill:#502c16;fill-opacity:1;fill-rule:nonzero;stroke:none"
             d="m 1312.9262,259.05775 c -1.0013,0 -1.7988,0.79842 -1.7988,1.80085 0,0.0267 0,0.053 0,0.0794 l 0,3.17796 3.6241,0 0,-3.17796 c 0,-0.026 0,-0.0531 0,-0.0794 0,-1.00243 -0.8239,-1.80085 -1.8253,-1.80085 z"
             id="path3257" />
          <path
             inkscape:connector-curvature="0"
             style="fill:#502c16;fill-opacity:1;fill-rule:nonzero;stroke:none"
             d="m 1305.0853,266.05143 c -1.0013,0 -1.7988,0.79842 -1.7988,1.80085 0,0.0267 0,0.053 0,0.0795 l 0,3.17796 3.6241,0 0,-3.17796 c 0,-0.026 0,-0.0531 0,-0.0795 0,-1.00243 -0.8238,-1.80085 -1.8253,-1.80085 z"
             id="path3259" />
          <path
             inkscape:connector-curvature="0"
             id="path3261"
             d="m 1312.9262,266.05143 c -1.0013,0 -1.7988,0.79842 -1.7988,1.80085 0,0.0267 0,0.053 0,0.0795 l 0,3.17796 3.6241,0 0,-3.17796 c 0,-0.026 0,-0.0531 0,-0.0795 0,-1.00243 -0.8239,-1.80085 -1.8253,-1.80085 z"
             style="fill:#502c16;fill-opacity:1;fill-rule:nonzero;stroke:none" />
          <path
             inkscape:connector-curvature="0"
             id="path3263"
             d="m 1342.4357,244.18368 c -1.5032,0 -2.7004,0.6633 -2.7004,1.49607 0,0.0222 0,0.044 0,0.066 l 0,2.64013 5.4405,0 0,-2.64013 c 0,-0.0216 0,-0.0441 0,-0.066 0,-0.83277 -1.2367,-1.49607 -2.7401,-1.49607 z"
             style="fill:#502c16;fill-opacity:1;fill-rule:nonzero;stroke:none" />
          <path
             inkscape:connector-curvature="0"
             style="fill:#502c16;fill-opacity:1;fill-rule:nonzero;stroke:none"
             d="m 1351.8627,244.18368 c -1.5033,0 -2.7005,0.6633 -2.7005,1.49607 0,0.0222 0,0.044 0,0.066 l 0,2.64012 5.4406,0 0,-2.64012 c 0,-0.0216 0,-0.0441 0,-0.066 0,-0.83277 -1.2368,-1.49607 -2.7401,-1.49607 z"
             id="path3265" />
          <path
             inkscape:connector-curvature="0"
             id="path3267"
             d="m 1296.1065,251.99524 c -1.0013,0 -1.7988,0.79843 -1.7988,1.80085 0,0.0267 0,0.053 0,0.0795 l 0,3.17797 3.624,0 0,-3.17797 c 0,-0.026 0,-0.0531 0,-0.0795 0,-1.00242 -0.8238,-1.80085 -1.8252,-1.80085 z"
             style="fill:#502c16;fill-opacity:1;fill-rule:nonzero;stroke:none" />
          <path
             inkscape:connector-curvature="0"
             style="fill:#502c16;fill-opacity:1;fill-rule:nonzero;stroke:none"
             d="m 1296.1065,260.46982 c -1.0013,0 -1.7988,0.79842 -1.7988,1.80085 0,0.0267 0,0.053 0,0.0795 l 0,3.17796 3.624,0 0,-3.17796 c 0,-0.026 0,-0.0531 0,-0.0795 0,-1.00243 -0.8238,-1.80085 -1.8252,-1.80085 z"
             id="path3269" />
          <path
             inkscape:connector-curvature="0"
             id="path3271"
             d="m 1322.0806,250.60415 c -1.0014,0 -1.7989,0.79842 -1.7989,1.80085 0,0.0267 0,0.053 0,0.0795 l 0,3.17796 3.6241,0 0,-3.17796 c 0,-0.026 0,-0.0531 0,-0.0795 0,-1.00243 -0.8238,-1.80085 -1.8252,-1.80085 z"
             style="fill:#502c16;fill-opacity:1;fill-rule:nonzero;stroke:none" />
          <path
             inkscape:connector-curvature="0"
             style="fill:#502c16;fill-opacity:1;fill-rule:nonzero;stroke:none"
             d="m 1330.5456,250.60415 c -1.0014,0 -1.7989,0.79842 -1.7989,1.80085 0,0.0267 0,0.053 0,0.0795 l 0,3.17796 3.6241,0 0,-3.17796 c 0,-0.026 0,-0.0531 0,-0.0795 0,-1.00243 -0.8238,-1.80085 -1.8252,-1.80085 z"
             id="path3273" />
          <path
             inkscape:connector-curvature="0"
             style="fill:#502c16;fill-opacity:1;fill-rule:nonzero;stroke:none"
             d="m 1322.0806,259.07873 c -1.0014,0 -1.7989,0.79842 -1.7989,1.80084 0,0.0267 0,0.053 0,0.0795 l 0,3.17797 3.6241,0 0,-3.17797 c 0,-0.026 0,-0.0531 0,-0.0795 0,-1.00242 -0.8238,-1.80084 -1.8252,-1.80084 z"
             id="path3275" />
          <path
             inkscape:connector-curvature="0"
             id="path3277"
             d="m 1330.5456,259.07873 c -1.0014,0 -1.7989,0.79842 -1.7989,1.80084 0,0.0267 0,0.053 0,0.0795 l 0,3.17797 3.6241,0 0,-3.17797 c 0,-0.026 0,-0.0531 0,-0.0795 0,-1.00242 -0.8238,-1.80084 -1.8252,-1.80084 z"
             style="fill:#502c16;fill-opacity:1;fill-rule:nonzero;stroke:none" />
          <path
             inkscape:connector-curvature="0"
             id="path3407"
             d="m 1332.4896,262.44704 c -1.0333,0 -1.8783,0.84578 -1.8782,1.8803 0,0.22857 0.031,0.433 0.1058,0.63559 l 0,0.90042 c -3.9235,0.42059 -7.5116,1.9586 -10.396,4.31674 l -0.6878,-0.71504 c -0.087,-0.19769 -0.2115,-0.36551 -0.3703,-0.52966 -0.7191,-0.74292 -1.9034,-0.77282 -2.6454,-0.053 -0.7421,0.7199 -0.7456,1.90538 -0.026,2.64831 0.1589,0.16415 0.308,0.27747 0.5027,0.37076 l 0.7407,0.76801 c -2.5479,2.9869 -4.206,6.71459 -4.55,10.83156 l -1.0846,0 c -0.2024,-0.075 -0.4066,-0.10593 -0.6349,-0.10593 -1.0333,10e-6 -1.8782,0.84589 -1.8781,1.8803 0,1.03448 0.8448,1.85381 1.8781,1.85381 0.2283,0 0.4326,-0.0309 0.6349,-0.10593 l 1.1111,0 c 0.4031,4.07324 2.0925,7.76258 4.6557,10.69915 l -0.8729,0.90043 c -0.1947,0.0933 -0.3702,0.20661 -0.5291,0.37076 -0.7192,0.74286 -0.6891,1.95496 0.053,2.67479 0.7422,0.72002 1.9262,0.66347 2.6454,-0.0794 0.1588,-0.16415 0.2833,-0.33198 0.3703,-0.52966 l 0.8729,-0.90043 c 2.8538,2.27476 6.366,3.77337 10.2109,4.18432 l 0,1.21822 c -0.075,0.2026 -0.1058,0.40702 -0.1058,0.6356 0,1.03451 0.845,1.8803 1.8782,1.88029 1.0333,0 1.8518,-0.84578 1.8518,-1.88029 0,-0.22858 -0.031,-0.43301 -0.1059,-0.6356 l 0,-1.13877 c 3.9546,-0.27026 7.5872,-1.6822 10.5548,-3.91949 l 0.5291,0.55615 c 0.087,0.19768 0.2114,0.36551 0.3703,0.52966 0.7191,0.74292 1.9031,0.79947 2.6453,0.0794 0.742,-0.71983 0.7456,-1.93193 0.026,-2.67479 -0.1589,-0.16415 -0.308,-0.27747 -0.5026,-0.37076 l -0.4497,-0.4767 c 2.767,-2.99766 4.5778,-6.86028 4.9996,-11.12288 l 0.344,0 c 0.2023,0.075 0.4064,0.10593 0.6348,0.10593 1.0334,0 1.8782,-0.81915 1.8782,-1.85381 0,-1.03442 -0.8448,-1.88038 -1.8782,-1.8803 -0.2284,10e-6 -0.4325,0.0309 -0.6348,0.10593 l -0.3175,0 c -0.3609,-4.3202 -2.1549,-8.22802 -4.9203,-11.28178 l 0.3175,-0.31779 c 0.1946,-0.0933 0.3701,-0.20661 0.529,-0.37076 0.7191,-0.74293 0.7157,-1.92841 -0.026,-2.64831 -0.7419,-0.71985 -1.9262,-0.68995 -2.6453,0.053 -0.1589,0.16415 -0.2833,0.33197 -0.3703,0.52966 l -0.3704,0.37076 c -2.9953,-2.30941 -6.6905,-3.77615 -10.7135,-4.05191 l 0,-0.82097 c 0.075,-0.20259 0.1059,-0.40703 0.1059,-0.63559 0,-1.03452 -0.8183,-1.88031 -1.8518,-1.8803 z m 1.7459,7.94491 c 2.7934,0.24965 5.3697,1.24153 7.5127,2.78072 l -7.5127,7.73305 0,-10.51377 z m -3.5183,0.0795 0,10.46081 -7.1952,-7.44174 c 2.0386,-1.57527 4.5069,-2.64236 7.1952,-3.01907 z m 13.6235,5.05827 c 1.9029,2.1963 3.1566,4.94992 3.4918,7.97139 l -11.2162,0 7.7244,-7.97139 z m -23.3317,0.42372 7.301,7.54767 -10.449,0 c 0.3146,-2.82584 1.4424,-5.42774 3.148,-7.54767 z m -3.1215,11.06992 10.4489,0 -7.1952,7.41525 c -1.7193,-2.0776 -2.8872,-4.63078 -3.2537,-7.41525 z m 18.7552,0 11.1633,0 c -0.3908,2.97944 -1.6799,5.68674 -3.5977,7.83898 l -7.5656,-7.83898 z m -5.9255,2.56886 0,10.16949 c -2.6227,-0.36751 -5.0277,-1.40039 -7.0365,-2.91314 l 7.0365,-7.25635 z m 3.5183,0.0265 7.354,7.57415 c -2.1091,1.47205 -4.6327,2.40511 -7.354,2.64831 l 0,-10.22246 z"
             style="fill:#8d7142;fill-opacity:1;fill-rule:nonzero;stroke:#502c17;stroke-width:0.6775834;stroke-linecap:butt;stroke-linejoin:miter;stroke-miterlimit:4;stroke-opacity:1;stroke-dasharray:none" />
          <path
             transform="matrix(0.8465011,0,0,0.8474576,1846.5009,0.4280473)"
             d="m -604.07124,336.07291 c 0,1.88288 -1.41331,3.40926 -3.15673,3.40926 -1.74341,0 -3.15672,-1.52638 -3.15672,-3.40926 0,-1.88289 1.41331,-3.40927 3.15672,-3.40927 1.74342,0 3.15673,1.52638 3.15673,3.40927 z"
             sodipodi:ry="3.4092648"
             sodipodi:rx="3.1567266"
             sodipodi:cy="336.07291"
             sodipodi:cx="-607.22797"
             id="path3427"
             style="fill:#8d7142;fill-opacity:1;fill-rule:nonzero;stroke:#502c17;stroke-width:0.5;stroke-linecap:butt;stroke-linejoin:miter;stroke-miterlimit:4;stroke-opacity:1;stroke-dasharray:none"
             sodipodi:type="arc" />
          <path
             inkscape:connector-curvature="0"
             id="path3357"
             d="m 1357.9358,272.89461 c -1.0013,0 -1.7988,0.79842 -1.7988,1.80084 0,0.0267 0,0.053 0,0.0795 l 0,3.17797 3.624,0 0,-3.17797 c 0,-0.026 0,-0.0531 0,-0.0795 0,-1.00242 -0.8238,-1.80084 -1.8252,-1.80084 z"
             style="fill:#502c16;fill-opacity:1;fill-rule:nonzero;stroke:none" />
          <path
             inkscape:connector-curvature="0"
             style="fill:#502c16;fill-opacity:1;fill-rule:nonzero;stroke:none"
             d="m 1365.1613,272.89461 c -1.0013,0 -1.7988,0.79842 -1.7988,1.80084 0,0.0267 0,0.053 0,0.0795 l 0,3.17797 3.624,0 0,-3.17797 c 0,-0.026 0,-0.0531 0,-0.0795 0,-1.00242 -0.8238,-1.80084 -1.8252,-1.80084 z"
             id="path3359" />
          <path
             inkscape:connector-curvature="0"
             id="path3361"
             d="m 1346.8195,258.66942 c -1.4607,0 -2.6239,1.22839 -2.6239,2.77064 0,0.0411 0,0.0816 0,0.12223 l 0,4.88937 5.2863,0 0,-4.88937 c 0,-0.0401 0,-0.0817 0,-0.12223 0,-1.54225 -1.2017,-2.77064 -2.6624,-2.77064 z"
             style="fill:#502c16;fill-opacity:1;fill-rule:nonzero;stroke:none" />
          <path
             inkscape:connector-curvature="0"
             id="path3363"
             d="m 1312.2071,237.18031 c -1.2101,0 -2.1739,0.94175 -2.1739,2.12411 0,0.0315 0,0.0625 0,0.0937 l 0,3.74843 4.3797,0 0,-3.74843 c 0,-0.0307 0,-0.0627 0,-0.0937 0,-1.18236 -0.9956,-2.12411 -2.2058,-2.12411 z"
             style="fill:#502c16;fill-opacity:1;fill-rule:nonzero;stroke:none" />
          <path
             inkscape:connector-curvature="0"
             id="path3367"
             d="m 1414.537,279.28221 c -1.0013,0 -1.7988,0.79842 -1.7988,1.80085 0,0.0267 0,0.053 0,0.0794 l 0,3.17797 3.624,0 0,-3.17797 c 0,-0.026 0,-0.0531 0,-0.0794 0,-1.00243 -0.8238,-1.80085 -1.8252,-1.80085 z"
             style="fill:#502c16;fill-opacity:1;fill-rule:nonzero;stroke:none" />
          <path
             inkscape:connector-curvature="0"
             style="fill:#502c16;fill-opacity:1;fill-rule:nonzero;stroke:none"
             d="m 1422.5745,279.28221 c -1.0014,0 -1.7989,0.79842 -1.7989,1.80085 0,0.0267 0,0.053 0,0.0794 l 0,3.17797 3.6241,0 0,-3.17797 c 0,-0.026 0,-0.0531 0,-0.0794 0,-1.00243 -0.8238,-1.80085 -1.8252,-1.80085 z"
             id="path3369" />
          <path
             inkscape:connector-curvature="0"
             id="path3371"
             d="m 1383.0054,279.49622 c -1.0013,0 -1.7988,0.79842 -1.7988,1.80084 0,0.0267 0,0.053 0,0.0795 l 0,3.17797 3.6241,0 0,-3.17797 c 0,-0.026 0,-0.0531 0,-0.0795 0,-1.00242 -0.8239,-1.80084 -1.8253,-1.80084 z"
             style="fill:#502c16;fill-opacity:1;fill-rule:nonzero;stroke:none" />
          <path
             inkscape:connector-curvature="0"
             style="fill:#502c16;fill-opacity:1;fill-rule:nonzero;stroke:none"
             d="m 1375.5024,279.49622 c -1.0013,0 -1.7988,0.79842 -1.7988,1.80084 0,0.0267 0,0.053 0,0.0795 l 0,3.17797 3.624,0 0,-3.17797 c 0,-0.026 0,-0.0531 0,-0.0795 0,-1.00242 -0.8238,-1.80084 -1.8252,-1.80084 z"
             id="path3373" />
          <path
             inkscape:connector-curvature="0"
             id="path3377"
             d="m 1414.0144,239.75296 c -1.1684,0 -2.0988,1.06119 -2.0988,2.3935 0,0.0355 0,0.0705 0,0.1056 l 0,4.22382 4.2284,0 0,-4.22382 c 0,-0.0346 0,-0.0706 0,-0.1056 0,-1.33231 -0.9611,-2.3935 -2.1296,-2.3935 z"
             style="fill:#502c16;fill-opacity:1;fill-rule:nonzero;stroke:none" />
          <path
             inkscape:connector-curvature="0"
             id="path3379"
             d="m 1433.8154,243.35465 c -1.2519,0 -2.2488,1.0373 -2.2488,2.33962 0,0.0347 0,0.0689 0,0.10322 l 0,4.12874 4.5306,0 0,-4.12874 c 0,-0.0338 0,-0.069 0,-0.10322 0,-1.30232 -1.0298,-2.33962 -2.2818,-2.33962 z"
             style="fill:#502c16;fill-opacity:1;fill-rule:nonzero;stroke:none" />
          <path
             inkscape:connector-curvature="0"
             style="fill:#502c16;fill-opacity:1;fill-rule:nonzero;stroke:none"
             d="m 1429.3926,263.08716 c -1.3557,0 -2.4353,1.018 -2.4353,2.29611 0,0.0341 0,0.0676 0,0.10129 l 0,4.05196 4.9063,0 0,-4.05196 c 0,-0.0332 0,-0.0677 0,-0.10129 0,-1.27811 -1.1152,-2.29611 -2.471,-2.29611 z"
             id="path3385" />
          <g
             transform="matrix(0.717169,0,0,0.7319142,-311.0772,-142.49638)"
             id="g3397">
            <rect
               style="fill:#502c16;fill-opacity:1;fill-rule:nonzero;stroke:none"
               id="rect3387"
               width="3.9198487"
               height="6.3189607"
               x="2341.1931"
               y="502.50067" />
            <path
               inkscape:connector-curvature="0"
               style="fill:none;stroke:#502c16;stroke-width:1.03764963;stroke-linecap:butt;stroke-linejoin:miter;stroke-miterlimit:4;stroke-opacity:1;stroke-dasharray:none"
               d="m 2432.0312,262.96875 0,10.40625 8.3126,0 0,-10.40625 -8.3126,0 z m 0.1563,10.5625 0,0.1875 8,0 0,-0.1875 -8,0 z"
               transform="translate(-93,237.36218)"
               id="rect3389" />
          </g>
          <g
             id="g3407"
             transform="matrix(0.717169,0,0,0.7319142,-301.13296,-142.49638)">
            <rect
               y="502.50067"
               x="2341.1931"
               height="6.3189607"
               width="3.9198487"
               id="rect3409"
               style="fill:#502c16;fill-opacity:1;fill-rule:nonzero;stroke:none" />
            <path
               inkscape:connector-curvature="0"
               id="path3411"
               transform="translate(-93,237.36218)"
               d="m 2432.0312,262.96875 0,10.40625 8.3126,0 0,-10.40625 -8.3126,0 z m 0.1563,10.5625 0,0.1875 8,0 0,-0.1875 -8,0 z"
               style="fill:none;stroke:#502c16;stroke-width:1.03764963;stroke-linecap:butt;stroke-linejoin:miter;stroke-miterlimit:4;stroke-opacity:1;stroke-dasharray:none" />
          </g>
          <g
             transform="matrix(0.5395278,0,0,0.5777265,105.75147,-87.256552)"
             id="g3415">
            <rect
               style="fill:#502c16;fill-opacity:1;fill-rule:nonzero;stroke:none"
               id="rect3417"
               width="3.9198487"
               height="6.3189607"
               x="2341.1931"
               y="502.50067" />
            <path
               inkscape:connector-curvature="0"
               style="fill:none;stroke:#502c16;stroke-width:1.03764963;stroke-linecap:butt;stroke-linejoin:miter;stroke-miterlimit:4;stroke-opacity:1;stroke-dasharray:none"
               d="m 2432.0312,262.96875 0,10.40625 8.3126,0 0,-10.40625 -8.3126,0 z m 0.1563,10.5625 0,0.1875 8,0 0,-0.1875 -8,0 z"
               transform="translate(-93,237.36218)"
               id="path3419" />
          </g>
          <g
             id="g3421"
             transform="matrix(0.5395278,0,0,0.5777265,114.21648,-87.256552)">
            <rect
               y="502.50067"
               x="2341.1931"
               height="6.3189607"
               width="3.9198487"
               id="rect3423"
               style="fill:#502c16;fill-opacity:1;fill-rule:nonzero;stroke:none" />
            <path
               inkscape:connector-curvature="0"
               id="path3425"
               transform="translate(-93,237.36218)"
               d="m 2432.0312,262.96875 0,10.40625 8.3126,0 0,-10.40625 -8.3126,0 z m 0.1563,10.5625 0,0.1875 8,0 0,-0.1875 -8,0 z"
               style="fill:none;stroke:#502c16;stroke-width:1.03764963;stroke-linecap:butt;stroke-linejoin:miter;stroke-miterlimit:4;stroke-opacity:1;stroke-dasharray:none" />
          </g>
          <path
             inkscape:connector-curvature="0"
             style="fill:#502c16;fill-opacity:1;fill-rule:nonzero;stroke:none"
             d="m 1374.2612,185.42486 c -1.0014,0 -1.7989,0.79843 -1.7989,1.80085 0,0.0267 0,0.053 0,0.0795 l 0,3.17797 3.6241,0 0,-3.17797 c 0,-0.026 0,-0.0531 0,-0.0795 0,-1.00242 -0.8238,-1.80085 -1.8252,-1.80085 z"
             id="path3428" />
          <path
             transform="matrix(0.8274894,0,0,0.8348995,-647.00527,3.8953692)"
             d="m 2458.3325,301.66458 c 0,4.35853 -3.5898,7.89182 -8.018,7.89182 -4.4283,0 -8.0181,-3.53329 -8.0181,-7.89182 0,-4.35853 3.5898,-7.89182 8.0181,-7.89182 4.4282,0 8.018,3.53329 8.018,7.89182 z"
             sodipodi:ry="7.8918166"
             sodipodi:rx="8.0180855"
             sodipodi:cy="301.66458"
             sodipodi:cx="2450.3145"
             id="path3441"
             style="fill:none;stroke:#502c16;stroke-width:1;stroke-linecap:butt;stroke-linejoin:miter;stroke-miterlimit:4;stroke-opacity:1;stroke-dasharray:none"
             sodipodi:type="arc" />
          <path
             inkscape:connector-curvature="0"
             id="path3430"
             d="m 1380.6874,250.92691 c -2.7013,0 -4.894,2.11975 -4.8939,4.74047 0,0.98277 0.3187,1.89053 0.8465,2.6483 l 0,8.23623 8.2799,0 0,-8.47457 c 0.4272,-0.70486 0.6613,-1.53362 0.6613,-2.40996 0,-2.62073 -2.1926,-4.74048 -4.8938,-4.74047 z"
             style="fill:#8d7142;fill-opacity:1;fill-rule:nonzero;stroke:#502c16;stroke-width:0.8469792;stroke-linecap:butt;stroke-linejoin:miter;stroke-miterlimit:4;stroke-opacity:1;stroke-dasharray:none" />
          <g
             transform="matrix(0.8465011,0,0,0.8474576,-614.27768,-201.15437)"
             id="g3470">
            <path
               inkscape:connector-curvature="0"
               style="fill:none;stroke:#502c16;stroke-width:1px;stroke-linecap:butt;stroke-linejoin:miter;stroke-opacity:1"
               d="m 2449.6429,295.89286 0,-1.78572"
               id="path3443"
               transform="translate(-93,237.36218)" />
            <path
               inkscape:connector-curvature="0"
               style="fill:none;stroke:#502c16;stroke-width:1px;stroke-linecap:butt;stroke-linejoin:miter;stroke-opacity:1"
               d="m 2451.7857,296.42857 0.8929,-1.96428"
               id="path3445"
               transform="translate(-93,237.36218)" />
            <path
               inkscape:connector-curvature="0"
               style="fill:none;stroke:#502c16;stroke-width:1px;stroke-linecap:butt;stroke-linejoin:miter;stroke-opacity:1"
               d="m 2453.75,297.85714 1.4286,-1.60714"
               id="path3447"
               transform="translate(-93,237.36218)" />
            <path
               inkscape:connector-curvature="0"
               style="fill:none;stroke:#502c16;stroke-width:1px;stroke-linecap:butt;stroke-linejoin:miter;stroke-opacity:1"
               d="m 2455.3571,299.82143 1.6072,-0.89286"
               id="path3449"
               transform="translate(-93,237.36218)" />
            <path
               inkscape:connector-curvature="0"
               style="fill:none;stroke:#502c16;stroke-width:1px;stroke-linecap:butt;stroke-linejoin:miter;stroke-opacity:1"
               d="m 2455.7143,301.78571 2.1428,0.17858"
               id="path3452"
               transform="translate(-93,237.36218)" />
            <path
               inkscape:connector-curvature="0"
               style="fill:none;stroke:#502c16;stroke-width:1px;stroke-linecap:butt;stroke-linejoin:miter;stroke-opacity:1"
               d="m 2455.1786,303.75 1.6071,1.25"
               id="path3454"
               transform="translate(-93,237.36218)" />
            <path
               inkscape:connector-curvature="0"
               id="path3460"
               d="m 2354.8571,533.79075 -0.8929,-1.96428"
               style="fill:none;stroke:#502c16;stroke-width:1px;stroke-linecap:butt;stroke-linejoin:miter;stroke-opacity:1" />
            <path
               inkscape:connector-curvature="0"
               id="path3462"
               d="m 2352.8928,535.21932 -1.4286,-1.60714"
               style="fill:none;stroke:#502c16;stroke-width:1px;stroke-linecap:butt;stroke-linejoin:miter;stroke-opacity:1" />
            <path
               inkscape:connector-curvature="0"
               id="path3464"
               d="m 2351.2857,537.18361 -1.6072,-0.89286"
               style="fill:none;stroke:#502c16;stroke-width:1px;stroke-linecap:butt;stroke-linejoin:miter;stroke-opacity:1" />
            <path
               inkscape:connector-curvature="0"
               id="path3466"
               d="m 2350.9285,539.14789 -2.1428,0.17858"
               style="fill:none;stroke:#502c16;stroke-width:1px;stroke-linecap:butt;stroke-linejoin:miter;stroke-opacity:1" />
            <path
               inkscape:connector-curvature="0"
               id="path3468"
               d="m 2351.4642,541.11218 -1.6071,1.25"
               style="fill:none;stroke:#502c16;stroke-width:1px;stroke-linecap:butt;stroke-linejoin:miter;stroke-opacity:1" />
          </g>
          <path
             inkscape:connector-curvature="0"
             sodipodi:nodetypes="ccccccccccccccccc"
             id="path2600"
             d="m 1346.7374,201.67678 c 2.7626,-8.32323 8.0126,-8.92678 8.0126,-8.92678 -3.9874,4.5 -5.1464,11.91421 -5.1464,11.91421 8.486,-10.84144 10.6073,7.36655 10.6073,7.36655 -4.2427,-11.31371 -11.3137,-2.65165 -11.3137,-2.65165 14.8492,-0.70711 7.6014,13.43503 7.6014,13.43503 1.0607,-12.02081 -7.6014,-10.6066 -7.6014,-10.6066 10.4298,7.77817 0.8839,18.03122 0.8839,18.03122 1.0606,-12.9047 -2.8285,-13.6118 -2.8285,-13.6118 -4.5962,6.18718 -4.5962,13.25825 -4.5962,13.25825 -4.9497,-9.01561 2.1214,-13.96536 2.1214,-13.96536 -6.0105,-1.41422 -8.3085,9.01561 -8.3085,9.01561 -2.8285,-13.08147 6.8942,-14.14213 6.8942,-14.14213 -4.2426,-4.41942 -12.5511,5.65685 -12.5511,5.65685 0.8839,-13.61181 13.2582,-11.13693 13.2582,-11.13693 -7.9549,-9.36917 -10.6065,-0.70711 -10.6065,-0.70711 3.889,-16.617 12.1975,-2.12132 13.5733,-2.92936 z"
             style="fill:#006e29;fill-opacity:1;fill-rule:evenodd;stroke:#502c17;stroke-width:0.5;stroke-linecap:butt;stroke-linejoin:miter;stroke-miterlimit:4;stroke-opacity:1;stroke-dasharray:none" />
          <path
             inkscape:connector-curvature="0"
             sodipodi:nodetypes="ccccccccccccccccc"
             id="path2602"
             d="m 1415.6278,218.04117 c 0,0 -4.2426,3.0052 -5.1265,10.07627 0,0 -4.2427,-9.89949 4.0658,-15.02602 0,0 -3.8891,-4.24264 -11.4905,9.19239 0,0 -3.5355,-12.55114 12.3744,-13.25825 0,0 -4.5962,-12.1976 -14.4957,0.17678 0,0 3.7123,-19.62222 15.2028,-5.83364 1.0607,-8.83883 5.8336,-9.01561 5.8336,-9.01561 -1.7677,3.18198 -1.9445,10.07627 -1.9445,10.07627 5.8336,-10.60659 12.0208,3.88909 12.0208,3.88909 -7.6014,-7.24785 -10.4298,0.88389 -10.4298,0.88389 12.1976,-2.12132 10.0763,11.66726 10.0763,11.66726 -5.3033,-11.13693 -9.8995,-7.95495 -9.8995,-7.95495 9.7227,4.77297 6.0104,16.97056 6.0104,16.97056 -2.8285,-10.25305 -8.1318,-12.37437 -8.1318,-12.37437 0.3535,6.36396 -3.1819,11.49049 -3.1819,11.49049 -1.0607,-5.65686 -0.7071,-10.96016 -0.8839,-10.96016 z"
             style="fill:#006e29;fill-opacity:1;fill-rule:evenodd;stroke:#502c17;stroke-width:0.5;stroke-linecap:butt;stroke-linejoin:miter;stroke-miterlimit:4;stroke-opacity:1;stroke-dasharray:none" />
          <path
             inkscape:connector-curvature="0"
             sodipodi:nodetypes="ccccccccccccc"
             id="path2604"
             d="m 1450.0993,236.42595 c 0,0 1.0606,-5.48008 -2.8285,-8.83884 0,0 1.2375,-1.59099 6.7175,1.94455 0,0 -1.0606,-6.18719 -7.6014,-6.36397 0,0 0,-5.12652 6.0104,-4.41941 0,0 -5.3033,-7.24785 -9.0156,1.94454 -5.1265,-6.54074 -10.0763,3.18198 -10.0763,3.18198 7.955,-4.24264 7.6014,-0.17678 7.6014,-0.17678 -8.3085,1.06066 -7.2478,7.42463 -7.2478,7.42463 5.6569,-6.01041 6.5407,-3.00521 6.5407,-3.00521 -2.4749,4.59619 -0.1767,7.77818 -0.1767,7.77818 2.8284,-8.48528 4.4194,-6.71752 4.4194,-6.71752 0.5303,-1.23743 5.4801,7.77817 5.6569,7.24785 z"
             style="fill:#006e29;fill-opacity:1;fill-rule:evenodd;stroke:#502c17;stroke-width:0.5;stroke-linecap:butt;stroke-linejoin:miter;stroke-miterlimit:4;stroke-opacity:1;stroke-dasharray:none" />
        </g>
        <path
           inkscape:connector-curvature="0"
           style="fill:#b50128;fill-opacity:1;stroke:#8d7142;stroke-width:3.34388542;stroke-miterlimit:4;stroke-opacity:1;stroke-dasharray:none"
           d="m 364.41855,140.06886 c -0.9562,0.0177 -1.95507,0.0718 -2.93634,0.1589 -5.7336,0.50888 -13.90006,3.67349 -18.54362,7.17691 -4.09072,3.08654 -6.78056,4.96629 -7.72432,5.37606 -0.0295,0.0128 -0.0797,0.043 -0.10582,0.053 -0.2967,0.22433 -0.62827,0.41472 -0.97872,0.55615 -0.22534,0.16752 -0.45728,0.30305 -0.71428,0.42373 -0.32582,0.2619 -0.6893,0.505 -1.08454,0.66207 -0.38456,0.30472 -0.8189,0.55786 -1.29624,0.71505 -0.32396,0.28625 -0.71132,0.50892 -1.11104,0.68856 -3.53024,2.45458 -9.63724,5.85493 -12.82974,7.1769 -0.38007,0.3097 -0.82339,0.57497 -1.29624,0.74153 -0.30771,0.2364 -0.61211,0.43708 -0.97881,0.58262 -0.29822,0.22116 -0.62701,0.41877 -0.97873,0.55615 -0.0763,0.0556 -0.15804,0.0819 -0.23803,0.13241 -0.63632,0.52547 -1.43161,0.86811 -2.30147,0.95339 -1.43736,0.51589 -4.88871,2.06694 -8.70305,3.89301 -17.55694,8.40504 -25.78594,19.77291 -26.9029,37.1822 -0.48843,7.61033 -1.49205,10.4121 -7.03654,19.59746 -12.03623,19.94034 -13.00785,25.79934 -6.85141,41.60487 1.75826,4.51723 4.0461,8.37923 7.16884,12.07627 2.52486,2.989 5.84941,7.31412 7.38048,9.61335 2.98899,4.48927 8.33296,16.6689 9.36433,21.37182 1.38801,6.3279 10.45785,18.80912 15.73967,21.63665 0.38296,0.20491 0.71107,0.45283 0.97873,0.68856 0.34546,0.15683 0.6612,0.34449 0.95231,0.58263 0.11411,0.0678 0.23711,0.1075 0.34394,0.18538 0.30855,0.1155 0.60389,0.24336 0.87299,0.42373 0.28273,0.11853 0.54642,0.27626 0.79351,0.45021 0.44391,0.15601 0.85421,0.40576 1.21693,0.68856 1.04704,0.40101 2.21733,0.88435 3.46532,1.50954 5.9239,2.96805 12.12757,4.64254 25.0776,6.80614 8.6785,1.4499 11.30824,2.31155 20.73928,6.70021 8.72133,4.05835 14.09466,6.16607 19.2314,7.52119 9.45017,2.49298 26.98239,-0.9056 35.84407,-6.93856 0.92989,-0.63293 1.84639,-1.18768 2.67173,-1.66843 0.0186,-0.0173 0.034,-0.036 0.053,-0.053 0.28273,-0.25449 0.60618,-0.49062 0.95232,-0.66208 0.0201,-0.0154 0.0588,-0.0114 0.0793,-0.0265 0.0432,-0.0434 0.0874,-0.0909 0.13231,-0.13241 0.0164,-0.0111 0.0363,-0.0157 0.0528,-0.0265 0.25116,-0.22631 0.51933,-0.44761 0.82009,-0.60911 0.26792,-0.25203 0.59848,-0.40679 0.92591,-0.58262 0.0259,-0.026 0.0524,-0.0541 0.0793,-0.0795 0.2835,-0.26672 0.60305,-0.48084 0.95232,-0.66208 1.68089,-1.60273 6.05595,-4.63585 12.40657,-8.52754 1.28127,-0.78524 6.43121,-2.71885 11.42777,-4.31674 9.55708,-3.05642 18.8233,-8.36813 24.15169,-13.82415 4.17494,-4.27472 9.01422,-13.13586 10.02579,-18.32627 0.49275,-2.52915 1.50948,-8.73934 2.24847,-13.79767 1.75641,-12.0237 2.74148,-15.08279 9.39092,-29.6875 6.43561,-14.13406 6.25818,-23.08975 -0.71428,-36.97034 -0.39354,-0.78323 -0.6121,-1.22105 -0.9259,-1.85381 -0.38177,-0.37341 -0.67907,-0.80544 -0.89933,-1.29767 -0.008,-0.009 -0.0187,-0.0173 -0.0265,-0.0265 -0.38558,-0.36546 -0.72816,-0.78397 -0.95231,-1.27119 -0.25429,-0.23259 -0.4445,-0.50668 -0.63488,-0.79449 -0.26275,-0.26055 -0.47489,-0.55233 -0.66137,-0.87394 -0.19563,-0.20437 -0.37763,-0.44832 -0.52906,-0.68856 -0.26352,-0.24807 -0.46956,-0.53952 -0.66129,-0.84746 -0.37593,-0.35613 -0.67644,-0.77246 -0.89941,-1.2447 -0.33183,-0.32896 -0.61304,-0.71556 -0.82,-1.13877 -0.0902,-0.1322 -0.16329,-0.28138 -0.23813,-0.42373 -0.24599,-0.24391 -0.42866,-0.54965 -0.60838,-0.84746 -0.15127,-0.1809 -0.30177,-0.38041 -0.42325,-0.58263 -2.77999,-2.88801 -6.01151,-6.71282 -7.96244,-9.66631 -1.97455,-2.989 -5.08315,-8.81159 -6.87782,-12.95021 -3.69371,-8.51823 -6.33259,-12.90012 -10.34314,-17.13454 -0.81612,-0.86179 -1.52396,-1.75533 -2.03694,-2.46292 -0.01,-0.007 -0.017,-0.0195 -0.0265,-0.0265 -0.40615,-0.30207 -0.75744,-0.65795 -1.03163,-1.08581 -0.33047,-0.21476 -0.64207,-0.4989 -0.8994,-0.79449 -0.0544,-0.022 -0.10573,-0.0553 -0.15872,-0.0795 -0.3276,-0.27557 -0.6833,-0.49375 -1.08462,-0.66207 -0.0177,-0.007 -0.0351,-0.0193 -0.0528,-0.0265 -0.15093,-0.12139 -0.30905,-0.24418 -0.47624,-0.34428 -0.12807,-0.10951 -0.28307,-0.19728 -0.42325,-0.29131 0.003,-0.009 -0.003,-0.0171 0,-0.0265 -0.0643,-0.0322 -0.12342,-0.0705 -0.18513,-0.10594 -0.28248,-0.16233 -0.52745,-0.36253 -0.76718,-0.58262 -0.006,-0.002 -0.02,0.003 -0.0264,0 -0.43561,-0.17168 -0.95858,-0.49724 -1.42847,-0.92691 -2.85398,-2.60995 -13.97607,-7.03445 -18.67593,-7.44174 -4.19085,-0.88016 -8.11765,-1.47267 -11.6923,-1.50953 -8.60807,-0.0699 -16.22531,-2.24942 -28.83394,-8.26271 -8.02119,-3.82554 -14.25728,-5.44743 -20.95091,-5.3231 z m 11.37486,27.54238 c 48.53414,0 87.90381,36.84156 87.90381,82.25635 8e-5,45.41478 -39.3695,82.28284 -87.90381,82.28284 -48.53439,-10e-6 -87.9303,-36.86805 -87.9303,-82.28284 0,-45.41479 39.39599,-82.25635 87.9303,-82.25635 z"
           id="path3519"
           sodipodi:nodetypes="csccccccccccccccscsccccccccccccsssccccccccccccscccccccccccccccccccccccccccccccccccccsccsssss" />
      </g>
    </g>
  </g>
</svg>
